<svg id="Layer_1" data-name="Layer 1" xmlns="http://www.w3.org/2000/svg" viewBox="0 0 64 72"><defs><style>.cls-1{fill:#fff;}</style></defs><title>microsite</title><path class="cls-1" d="M8.74,68.32a.73.73,0,0,1-.6-.85l1.38-9.84-.18-.19A31.65,31.65,0,1,1,62.23,26,31.69,31.69,0,0,1,31.92,67h0a31.65,31.65,0,0,1-14.79-3.69l-.28-.14-7.58,5a.73.73,0,0,1-.41.12ZM32,5.15A30.2,30.2,0,0,0,10.82,56.86a.72.72,0,0,1,.21.62L9.76,66l6.71-4.36a.75.75,0,0,1,.35-.08.77.77,0,0,1,.36.09A30.21,30.21,0,1,0,32,5.15Z"/><path class="cls-1" d="M26,53.32a.74.74,0,0,1-.73-.74V48a.74.74,0,0,1,.73-.74h1.6v-14H26a.73.73,0,0,1-.73-.73V28a.74.74,0,0,1,.73-.74H37a.74.74,0,0,1,.74.74V47.27h1.58a.74.74,0,0,1,.74.74v4.57a.74.74,0,0,1-.74.74Zm.74-1.48H38.58l0-3.09H37a.74.74,0,0,1-.74-.74V28.72H26.77v3.09h1.6a.74.74,0,0,1,.74.74V48a.74.74,0,0,1-.74.74h-1.6Z"/><path class="cls-1" d="M32,24.41a4.79,4.79,0,1,1,4.78-4.78A4.79,4.79,0,0,1,32,24.41Zm0-8.1a3.43,3.43,0,1,0,.55.06v0Z"/></svg>