<svg xmlns="http://www.w3.org/2000/svg" viewBox="0 0 146 135"><defs><style>.cls-1{isolation:isolate;}.cls-2{mix-blend-mode:multiply;}.cls-3{fill:#254f75;}</style></defs><title>microsite</title><g class="cls-1"><g id="Layer_1" data-name="Layer 1"><g class="cls-2"><path class="cls-3" d="M72.69,29.79c-7.29,0-13.21-7.43-13.21-16.56,0-8,4.93-12.79,13.21-12.79S85.9,5.1,85.9,13.23C85.9,22.36,80,29.79,72.69,29.79Zm0-26.35c-4.66,0-10.21,1.7-10.21,9.79,0,7.35,4.67,13.56,10.21,13.56S82.9,20.71,82.9,13.23C82.9,6.74,79.46,3.44,72.69,3.44Z"/><path class="cls-3" d="M80,134.56a7.91,7.91,0,0,1-7.57-7.77l.2-29.66h-.15l-.36,24.33,0,5.33a7.91,7.91,0,0,1-7.78,7.56,7.77,7.77,0,0,1-7.56-7.77l.21-46a3,3,0,0,1,.06-.62A16.51,16.51,0,0,1,50.9,67.19l.21-21.35A16.35,16.35,0,0,1,67.46,29.72H78.33A15.86,15.86,0,0,1,89.75,34.5l.22.23a16.46,16.46,0,0,1,4.5,11.33l-.21,21.35a15.63,15.63,0,0,1-1.69,7.1,16.48,16.48,0,0,1-4.38,5.63c0,.15,0,.3,0,.43l-.21,46a7.14,7.14,0,0,1-.86,3.39A7.89,7.89,0,0,1,80,134.56ZM69.53,94.13h6.13l-.22,32.66a4.67,4.67,0,0,0,9,1.92l.06-.11a4.28,4.28,0,0,0,.52-2l.21-46a2,2,0,0,0,0-.54l-.37-1,.88-.67a13.78,13.78,0,0,0,4.2-5.11,12.71,12.71,0,0,0,1.39-5.8l.21-21.35a13.37,13.37,0,0,0-3.64-9.21l-.25-.27a12.87,12.87,0,0,0-9.25-3.85H67.46A13.35,13.35,0,0,0,54.11,45.89L53.9,67.2a13.36,13.36,0,0,0,5.65,10.9l.63.45v.77a4.13,4.13,0,0,1-.15,1,1,1,0,0,0-.06.28l-.21,46a4.73,4.73,0,0,0,4.56,4.77,4.89,4.89,0,0,0,4.78-4.66l0-5.26Z"/><path class="cls-3" d="M115.35,34.81c-6.48,0-11.75-6.58-11.75-14.68C103.6,13,108,8.81,115.35,8.81s11.74,4.12,11.74,11.32C127.09,28.23,121.82,34.81,115.35,34.81Zm0-23c-4,0-8.75,1.44-8.75,8.32,0,6.44,3.92,11.68,8.75,11.68s8.74-5.24,8.74-11.68C124.09,14.53,121.23,11.81,115.35,11.81Z"/><path class="cls-3" d="M121.83,125.57a6.81,6.81,0,0,1-6.69-6.23,6.84,6.84,0,0,1-13.63-.92l.21-39.95a2.54,2.54,0,0,1,0-.41A14,14,0,0,1,96.49,67V48.57a14.1,14.1,0,0,1,14.26-14.25h9.41a14.6,14.6,0,0,1,14.46,14.46l-.21,18.63A14,14,0,0,1,129,78.61v.29l-.21,39.95A6.84,6.84,0,0,1,121.83,125.57ZM112.4,89.94h5.92l-.22,28.7a3.84,3.84,0,0,0,7.67.2L126,77.06l.65-.44a11,11,0,0,0,4.78-9.22l.21-18.63a11.22,11.22,0,0,0-4.93-9.34l0,0a11.08,11.08,0,0,0-6.49-2.09h-9.41A11.13,11.13,0,0,0,99.49,48.57V67a11,11,0,0,0,4.79,9.22l.65.44v.79a3.19,3.19,0,0,1-.18,1l0,.11-.2,39.89a3.83,3.83,0,0,0,7.66.2Z"/><path class="cls-3" d="M30.24,34.81c-6.48,0-11.75-6.58-11.75-14.68,0-7.09,4.39-11.32,11.75-11.32S42,12.93,42,20.13C42,28.23,36.71,34.81,30.24,34.81Zm0-23c-4,0-8.75,1.44-8.75,8.32,0,6.44,3.92,11.68,8.75,11.68S39,26.57,39,20.13C39,14.53,36.12,11.81,30.24,11.81Z"/><path class="cls-3" d="M36.72,125.78a6.83,6.83,0,0,1-6.7-6.23,6.83,6.83,0,0,1-13.62-.92l.21-39.95a2.54,2.54,0,0,1,0-.41,14,14,0,0,1-5.26-11.08l.21-18.63A14.1,14.1,0,0,1,25.84,34.32h9.41A14.49,14.49,0,0,1,49.51,49L49.3,67.62a13.94,13.94,0,0,1-5.44,11.2v.29l-.2,39.94A6.85,6.85,0,0,1,36.72,125.78ZM33,118.58v.27a3.84,3.84,0,0,0,7.67.2l.2-41.78.65-.45A11,11,0,0,0,46.3,67.6L46.51,49A11.48,11.48,0,0,0,35.25,37.32H25.84A11.13,11.13,0,0,0,14.59,48.57L14.38,67.2a11,11,0,0,0,4.78,9.21l.66.44v.79a2.93,2.93,0,0,1-.19,1l0,.11-.2,39.89a3.83,3.83,0,1,0,7.66.2l.22-28.69h5.93Z"/></g></g></g></svg>