<svg id="Layer_1" data-name="Layer 1" xmlns="http://www.w3.org/2000/svg" viewBox="0 0 64 72"><defs><style>.cls-1{fill:#fff;}</style></defs><title>microsite</title><path class="cls-1" d="M16,68.51a5.89,5.89,0,0,1-5.88-5.88V23.08a.56.56,0,0,1,1.11,0V62.63A4.78,4.78,0,0,0,16,67.4H48a4.78,4.78,0,0,0,4.76-4.77V23.08a.56.56,0,0,1,1.11,0V62.63A5.89,5.89,0,0,1,48,68.51Z"/><path class="cls-1" d="M23.28,60.53a.56.56,0,0,1-.56-.56V23.35a.56.56,0,0,1,1.12,0V60A.56.56,0,0,1,23.28,60.53Z"/><path class="cls-1" d="M32,60.53a.56.56,0,0,1-.56-.56V23.35a.56.56,0,0,1,1.12,0V60A.56.56,0,0,1,32,60.53Z"/><path class="cls-1" d="M40.72,60.53a.55.55,0,0,1-.55-.56V23.35a.55.55,0,0,1,.55-.56.56.56,0,0,1,.56.56V60A.56.56,0,0,1,40.72,60.53Z"/><path class="cls-1" d="M41.32,9.93a.56.56,0,0,1-.56-.56A4.78,4.78,0,0,0,36,4.6H28a4.78,4.78,0,0,0-4.77,4.77.56.56,0,0,1-1.12,0A5.89,5.89,0,0,1,28,3.49h8a5.89,5.89,0,0,1,5.88,5.88A.56.56,0,0,1,41.32,9.93Z"/><path class="cls-1" d="M5.37,19.25a.56.56,0,0,1-.56-.56V16A3.24,3.24,0,0,1,8,12.81H56a3.19,3.19,0,0,1,2.27.94A3.23,3.23,0,0,1,59.19,16v2.66a.56.56,0,0,1-.56.56ZM8,13.92a2.14,2.14,0,0,0-1.49.62A2.09,2.09,0,0,0,5.93,16v2.1H58.07V16A2.12,2.12,0,0,0,56,13.92Z"/></svg>