<svg id="Layer_1" data-name="Layer 1" xmlns="http://www.w3.org/2000/svg" viewBox="0 0 64 72"><defs><style>.cls-1{fill:#fff;}</style></defs><title>microsite</title><path class="cls-1" d="M50.85,19.85a.9.9,0,0,0,0-.72.72.72,0,0,0-.2-.31L39.3,7.46A.95.95,0,1,0,38,8.8l9.74,9.74H14a.95.95,0,1,0,0,1.89H47.7L38,30.17a1,1,0,0,0,0,1.34.91.91,0,0,0,.67.28.94.94,0,0,0,.67-.28L50.65,20.16a.79.79,0,0,0,.2-.31Zm0,0"/><path class="cls-1" d="M13.15,52.15a.9.9,0,0,0,0,.72.72.72,0,0,0,.2.31L24.7,64.54A.95.95,0,0,0,26,63.2L16.3,53.46H50a.95.95,0,1,0,0-1.89H16.3L26,41.83a1,1,0,0,0,0-1.34.91.91,0,0,0-.67-.28.94.94,0,0,0-.67.28L13.35,51.84a.79.79,0,0,0-.2.31Zm0,0"/></svg>