<svg id="Layer_1" data-name="Layer 1" xmlns="http://www.w3.org/2000/svg" viewBox="0 0 210.04 72.62"><defs><style>.cls-1{fill:#fff;}</style></defs><title>microsite</title><path class="cls-1" d="M11,55.15H9.43V53H11Zm0,17.18H9.43V58.46H11Z"/><path class="cls-1" d="M28.15,66.38l0,.07a5.52,5.52,0,0,1-1.83,4.48,7.14,7.14,0,0,1-4.95,1.68,6.41,6.41,0,0,1-5.13-2.3,8.88,8.88,0,0,1-2-6v-3.1a8.92,8.92,0,0,1,2-5.95A6.39,6.39,0,0,1,21.39,53a7.27,7.27,0,0,1,5,1.64,5.51,5.51,0,0,1,1.81,4.5l0,.07H26.68a4.65,4.65,0,0,0-1.4-3.59,5.57,5.57,0,0,0-3.89-1.28,4.84,4.84,0,0,0-4,1.93,7.82,7.82,0,0,0-1.51,5v3.13a7.85,7.85,0,0,0,1.51,5,4.85,4.85,0,0,0,4,1.94A5.7,5.7,0,0,0,25.28,70a4.67,4.67,0,0,0,1.4-3.65Z"/><path class="cls-1" d="M32.92,72.33H31.36V51.92h1.56Z"/><path class="cls-1" d="M35.7,65a7.63,7.63,0,0,1,1.72-5.13,5.65,5.65,0,0,1,4.54-2,5.67,5.67,0,0,1,4.55,2A7.58,7.58,0,0,1,48.23,65v.43a7.61,7.61,0,0,1-1.71,5.14,5.68,5.68,0,0,1-4.53,2,5.73,5.73,0,0,1-4.57-2,7.62,7.62,0,0,1-1.72-5.14Zm1.57.43a6.76,6.76,0,0,0,1.25,4.14,4.38,4.38,0,0,0,6.9,0,6.7,6.7,0,0,0,1.25-4.14V65a6.75,6.75,0,0,0-1.25-4.11A4.11,4.11,0,0,0,42,59.24a4,4,0,0,0-3.44,1.69A6.75,6.75,0,0,0,37.27,65Z"/><path class="cls-1" d="M60.1,70a5,5,0,0,1-1.83,1.91,5.35,5.35,0,0,1-2.72.67A4.32,4.32,0,0,1,52,71.08a7.23,7.23,0,0,1-1.26-4.7V58.17h1.57V66.4a6.09,6.09,0,0,0,.88,3.72,3,3,0,0,0,2.51,1.13,4.58,4.58,0,0,0,2.82-.8A4.23,4.23,0,0,0,60,68.29V58.17h1.57V72.33H60.23Z"/><path class="cls-1" d="M64.46,65.37a9.24,9.24,0,0,1,1.44-5.43,4.58,4.58,0,0,1,4-2,4.89,4.89,0,0,1,4.36,2.35V51.92h1.57V72.33H74.54l-.22-2A5.07,5.07,0,0,1,72.48,72a5.52,5.52,0,0,1-2.61.6,4.69,4.69,0,0,1-4-1.9,8.16,8.16,0,0,1-1.44-5.07Zm1.57.27a7.1,7.1,0,0,0,1,4.08,3.49,3.49,0,0,0,3.1,1.53,4.42,4.42,0,0,0,2.52-.68,4.53,4.53,0,0,0,1.57-1.87V62a5,5,0,0,0-1.52-2,4,4,0,0,0-2.55-.76A3.42,3.42,0,0,0,67.07,61a8.39,8.39,0,0,0-1,4.41Z"/><path class="cls-1" d="M99.18,66.66a3.63,3.63,0,0,0-1.42-2.94A14.48,14.48,0,0,0,93,61.54,15.94,15.94,0,0,1,87.33,59a5,5,0,0,1-1.93-4.13,5.32,5.32,0,0,1,2.16-4.36,8.62,8.62,0,0,1,5.52-1.71,8.19,8.19,0,0,1,5.67,1.93,6.14,6.14,0,0,1,2.08,4.91l0,.09H99a4.92,4.92,0,0,0-1.66-3.8,6.12,6.12,0,0,0-4.28-1.51,6.43,6.43,0,0,0-4.24,1.28,4,4,0,0,0-1.53,3.14,3.56,3.56,0,0,0,1.39,2.9,14.17,14.17,0,0,0,4.9,2.12,16,16,0,0,1,5.58,2.63,5,5,0,0,1,1.92,4.13A5.11,5.11,0,0,1,98.85,71a9.32,9.32,0,0,1-5.66,1.65,10.28,10.28,0,0,1-6-1.74,5.59,5.59,0,0,1-2.47-5.08l0-.09h1.76a4.44,4.44,0,0,0,2,4A8.29,8.29,0,0,0,93.19,71a7.17,7.17,0,0,0,4.32-1.22A3.73,3.73,0,0,0,99.18,66.66Z"/><path class="cls-1" d="M103.62,63.43a9.21,9.21,0,0,1,2.08-6.22,7.46,7.46,0,0,1,11,0,9.21,9.21,0,0,1,2.09,6.22V64a9.29,9.29,0,0,1-2.08,6.24,7.52,7.52,0,0,1-11,0A9.24,9.24,0,0,1,103.62,64Zm1.9.53A8.22,8.22,0,0,0,107,69a5.33,5.33,0,0,0,8.39,0,8.16,8.16,0,0,0,1.52-5v-.53a8.18,8.18,0,0,0-1.53-5,5.32,5.32,0,0,0-8.38,0,8.23,8.23,0,0,0-1.51,5Z"/><path class="cls-1" d="M124.28,72.29h-1.89V47.5h1.89Z"/><path class="cls-1" d="M140.14,69.49a5.84,5.84,0,0,1-2.22,2.32,6.43,6.43,0,0,1-3.3.81,5.22,5.22,0,0,1-4.25-1.84q-1.55-1.84-1.55-5.73v-10h1.91v10a7.44,7.44,0,0,0,1.07,4.51,3.66,3.66,0,0,0,3,1.37,5.49,5.49,0,0,0,3.42-1,5,5,0,0,0,1.81-2.62V55.09H142v17.2h-1.7Z"/><path class="cls-1" d="M149.32,50.69v4.4h3.79v1.56h-3.79v11.2a3.61,3.61,0,0,0,.62,2.39,2,2,0,0,0,1.63.72,4.8,4.8,0,0,0,.67,0,7.28,7.28,0,0,0,.77-.13l.29,1.41a3.78,3.78,0,0,1-1,.31,5.33,5.33,0,0,1-1.12.12,3.58,3.58,0,0,1-2.82-1.14,5.41,5.41,0,0,1-1-3.63V56.65h-3V55.09h3v-4.4Z"/><path class="cls-1" d="M158.31,52.64h-1.89V50h1.89Zm0,19.65h-1.89V55.49h1.89Z"/><path class="cls-1" d="M161.85,63.43a9.21,9.21,0,0,1,2.08-6.22,7.48,7.48,0,0,1,11,0,9.26,9.26,0,0,1,2.08,6.22V64A9.24,9.24,0,0,1,175,70.2a6.88,6.88,0,0,1-5.5,2.42,7,7,0,0,1-5.55-2.42A9.24,9.24,0,0,1,161.85,64Zm1.91.53a8.15,8.15,0,0,0,1.51,5,5.32,5.32,0,0,0,8.38,0,8.16,8.16,0,0,0,1.52-5v-.53a8.17,8.17,0,0,0-1.52-5,5,5,0,0,0-4.2-2,4.9,4.9,0,0,0-4.18,2,8.17,8.17,0,0,0-1.51,5Z"/><path class="cls-1" d="M182.07,55.09l.17,3a6.31,6.31,0,0,1,2.24-2.44,6.19,6.19,0,0,1,3.33-.87,5.27,5.27,0,0,1,4.25,1.71c1,1.14,1.47,2.91,1.47,5.33V72.29h-1.91V61.83c0-2-.37-3.37-1.1-4.18a4,4,0,0,0-3.14-1.23,5.06,5.06,0,0,0-3.28,1,5.55,5.55,0,0,0-1.81,2.68V72.29h-1.91V55.09Z"/><path class="cls-1" d="M208.15,67.89a2.74,2.74,0,0,0-1-2.11,8.05,8.05,0,0,0-3.58-1.47A11.92,11.92,0,0,1,199,62.57a3.64,3.64,0,0,1-1.48-3.09,4.16,4.16,0,0,1,1.66-3.34,6.7,6.7,0,0,1,4.39-1.37,6.9,6.9,0,0,1,4.6,1.46,4.27,4.27,0,0,1,1.63,3.58l0,.1H208a3.18,3.18,0,0,0-1.22-2.47,4.74,4.74,0,0,0-3.22-1,4.6,4.6,0,0,0-3.11.9,2.72,2.72,0,0,0-1.05,2.11,2.45,2.45,0,0,0,.9,2,8.93,8.93,0,0,0,3.58,1.36,11.6,11.6,0,0,1,4.57,1.86A3.84,3.84,0,0,1,210,67.79a4.22,4.22,0,0,1-1.74,3.49,8.7,8.7,0,0,1-9.52-.16,4.2,4.2,0,0,1-1.69-3.55l0-.1h1.75a3.17,3.17,0,0,0,1.51,2.7,6.28,6.28,0,0,0,3.32.85,5.18,5.18,0,0,0,3.26-.93A2.72,2.72,0,0,0,208.15,67.89Z"/><path class="cls-1" d="M81.72,14.92c-1.39-4.45-11.8-6.12-22-5.46a12.27,12.27,0,0,1,4.52,1.84c7.6.12,12.13,1.4,13.23,4.93C79.66,23.16,65.07,33.69,44.88,40S5.83,45.5,4.12,39.87c-.65-2.16,1.58-5.37,4.41-7.78a13.1,13.1,0,0,1,.06-3.69C3.12,32.12-.87,37.75.16,41.08c2.42,7.72,22.62,7.59,45.15.56S84.13,22.64,81.72,14.92Z"/><path class="cls-1" d="M21.06,40.45H40.71c13.8-4.34,27.07-10.57,33.45-17.09A10,10,0,0,0,67,19.07c0-.14,0-.29,0-.44,0-5.55-4.51-8.95-10.06-8.95A10.06,10.06,0,0,0,52.08,11,16.63,16.63,0,0,0,36.74.74C27.56.74,23,7.08,23,16.26a16.86,16.86,0,0,0,.28,2.95A11.5,11.5,0,0,0,9.13,30.44C9.13,36.8,14.7,40.45,21.06,40.45Z"/><path class="cls-1" d="M51.25,40.45H65.16c6.36,0,11.52-3.65,11.52-10a11.33,11.33,0,0,0-.49-3.31A71.47,71.47,0,0,1,51.25,40.45Z"/><path class="cls-1" d="M110.08,40.13c-.31-1-.57-2-.78-2.92a22.88,22.88,0,0,1-.42-2.84A15,15,0,0,1,104.11,39a12.26,12.26,0,0,1-6.66,1.87q-6.15,0-9.45-3.17c-2.2-2.11-3.29-5-3.29-8.7a10.27,10.27,0,0,1,4.51-8.9q4.52-3.18,12.71-3.19h6.88V13.47A6.44,6.44,0,0,0,107,8.63a7.25,7.25,0,0,0-5.23-1.75A7.42,7.42,0,0,0,97,8.32a4.57,4.57,0,0,0-1.79,3.73l-8.52,0,0-.22q-.26-4.66,4.17-8.26C93.75,1.2,97.6,0,102.33,0s8.29,1.17,11.1,3.5,4.23,5.68,4.23,10.05V31.06a32,32,0,0,0,.33,4.68A24.82,24.82,0,0,0,119,40.13ZM99.27,33.79a11.1,11.1,0,0,0,6-1.67,8.43,8.43,0,0,0,3.55-3.83V22.47h-7a8.89,8.89,0,0,0-6,1.91,5.79,5.79,0,0,0-2.19,4.5A4.55,4.55,0,0,0,95,32.46,6.11,6.11,0,0,0,99.27,33.79Z"/><path class="cls-1" d="M140.08,33.83a7.32,7.32,0,0,0,5.11-1.9,6.17,6.17,0,0,0,2.09-4.8h8l.08.22A11.85,11.85,0,0,1,151,36.88a15.86,15.86,0,0,1-10.9,4q-8.52,0-13.15-5.62t-4.62-14.19V19.81q0-8.52,4.62-14.17T140,0a15.48,15.48,0,0,1,11.18,4.13,13.51,13.51,0,0,1,4.15,10.51l-.08.22h-8a8,8,0,0,0-2-5.5A6.65,6.65,0,0,0,140,7.1q-4.74,0-6.81,3.66a18.16,18.16,0,0,0-2.07,9v1.27a18.33,18.33,0,0,0,2.05,9.13Q135.27,33.82,140.08,33.83Z"/><path class="cls-1" d="M169.69,8.4h-8.85V.64h8.85Zm0,31.73h-8.85V14.85h8.85Z"/><path class="cls-1" d="M184.89.73l.5,5.68a14.07,14.07,0,0,1,4.87-4.72A13,13,0,0,1,196.87,0q6.15,0,9.59,3.79t3.44,11.83V40.13h-8.85V15.69q0-4.59-1.78-6.51a7,7,0,0,0-5.39-1.93A10.69,10.69,0,0,0,189,8.32a8.71,8.71,0,0,0-3.31,3V40.13H176.8V.73Z"/></svg>