<svg id="Layer_1" data-name="Layer 1" xmlns="http://www.w3.org/2000/svg" viewBox="0 0 64 72"><defs><style>.cls-1{fill:#fff;}</style></defs><title>microsite</title><path class="cls-1" d="M26.05,49.25,48.76,26.4,47.42,25l-22,22L14.69,36.29l-1.34,1.47L24.71,49.25Zm0,0"/><path class="cls-1" d="M32,66.28h0A30.28,30.28,0,0,0,53.41,14.59,30.07,30.07,0,0,0,32,5.72h0A30.28,30.28,0,0,0,10.59,57.41,30.07,30.07,0,0,0,32,66.28ZM11.93,15.93A28.38,28.38,0,1,1,52.07,56.07,28.19,28.19,0,0,1,32,64.39h0A28.38,28.38,0,0,1,11.93,15.93Zm0,0"/></svg>