<svg xmlns="http://www.w3.org/2000/svg" viewBox="0 0 146 135"><defs><style>.cls-1{isolation:isolate;}.cls-2{mix-blend-mode:multiply;}.cls-3{fill:#5199ad;}</style></defs><title>microsite</title><g class="cls-1"><g id="Layer_1" data-name="Layer 1"><g class="cls-2"><path class="cls-3" d="M73,77.49a1.69,1.69,0,0,1-1.9-1.89A21.94,21.94,0,0,1,80,57.89C83.67,55.1,85,51.11,84,46l0-.1a11.73,11.73,0,0,0-8.9-8.87,12.5,12.5,0,0,0-2.92-.37A12,12,0,0,0,65.33,39c-3.89,2.59-4.2,7.6-4.2,9.08a1.9,1.9,0,0,1-3.79,0A15.31,15.31,0,0,1,72.21,32.58a10.54,10.54,0,0,1,3.35.53l.08,0,.08,0A16.28,16.28,0,0,1,87.9,45.3c1.41,5.64-.69,11.34-5.75,15.69C77.1,65,74.09,70.5,74.09,75.6V76l.07.4a1.87,1.87,0,0,1,.06.76A1.53,1.53,0,0,1,73,77.49Z"/><path class="cls-3" d="M73,134.17A66.67,66.67,0,1,1,139.67,67.5,66.75,66.75,0,0,1,73,134.17ZM73,4.62A62.69,62.69,0,0,0,28.67,111.83a62.69,62.69,0,1,0,88.66-88.66A62.37,62.37,0,0,0,73,4.62Z"/><circle class="cls-3" cx="72.84" cy="99.43" r="1.74"/></g></g></g></svg>