<svg id="Layer_1" data-name="Layer 1" xmlns="http://www.w3.org/2000/svg" viewBox="0 0 146 135"><defs><style>.cls-1{fill:#b7621c;}</style></defs><title>microsite</title><path class="cls-1" d="M9.11,16.44H120.23a6.77,6.77,0,0,1,6.52,5l1.52,0h.82a9.06,9.06,0,0,0-8.86-7.27H9.11A9.08,9.08,0,0,0,0,23.22v80.23a9.07,9.07,0,0,0,9.07,9.06h5.34v-2.27H9.11a6.78,6.78,0,0,1-6.78-6.77V23.22A6.79,6.79,0,0,1,9.11,16.44Z"/><path class="cls-1" d="M30.64,16.44a1.15,1.15,0,0,1,0-2.29H98.7a1.15,1.15,0,1,1,0,2.29Z"/><path class="cls-1" d="M25.77,120.85a9.07,9.07,0,0,1-9.06-9.07V31.55a9.06,9.06,0,0,1,9.06-9.06H136.89A9.07,9.07,0,0,1,146,31.55V111.8a9.07,9.07,0,0,1-9.07,9Zm0-96.07A6.78,6.78,0,0,0,19,31.55V111.8a6.78,6.78,0,0,0,6.77,6.78H136.89a6.8,6.8,0,0,0,6.8-6.78V31.55a6.79,6.79,0,0,0-6.8-6.77Z"/><path class="cls-1" d="M47.3,24.78a1.15,1.15,0,0,1,0-2.29h68.07a1.15,1.15,0,0,1,1.15,1.13,1.16,1.16,0,0,1-1.15,1.16Z"/><path class="cls-1" d="M37,101.35a1.14,1.14,0,0,1-1.13-1.13v-5.3a7.78,7.78,0,0,1,4.43-7l.08,0,11.49-7.09L50.93,80a14.33,14.33,0,0,1-5.35-10.6L45.18,59A13.64,13.64,0,0,1,58.89,45.45h2.76A13.62,13.62,0,0,1,75.36,58.94L75,69.43A14.46,14.46,0,0,1,69.6,80.05l-.92.75,11.61,7.09a7.88,7.88,0,0,1,4.41,7v5.3a1.05,1.05,0,0,1-.31.79,1.15,1.15,0,0,1-.82.34Zm45.46-2.29V94.92A5.47,5.47,0,0,0,79.31,90l-.09,0L65.8,81.71a1.19,1.19,0,0,1-.54-1,1.18,1.18,0,0,1,.65-1,12.12,12.12,0,0,0,6.76-10.36l.4-10.44A11.3,11.3,0,0,0,61.65,47.72H58.89A11.33,11.33,0,0,0,47.47,58.94l.41,10.4A12.14,12.14,0,0,0,54.62,79.7a1.25,1.25,0,0,1,.65,1,1.23,1.23,0,0,1-.57,1L41.37,89.89a5.58,5.58,0,0,0-3.24,5v4.16h44.3Z"/><path class="cls-1" d="M101.52,56.94a1.15,1.15,0,0,1,0-2.29H126a1.15,1.15,0,0,1,0,2.29Z"/><path class="cls-1" d="M101.52,74.53a1.15,1.15,0,0,1-1.14-1.14,1.13,1.13,0,0,1,1.14-1.14H126a1.13,1.13,0,0,1,1.14,1.14A1.15,1.15,0,0,1,126,74.53Z"/><path class="cls-1" d="M101.52,92.12a1.14,1.14,0,1,1,0-2.28H126a1.14,1.14,0,1,1,0,2.28Z"/></svg>