<svg id="Layer_1" data-name="Layer 1" xmlns="http://www.w3.org/2000/svg" viewBox="0 0 64 72"><defs><style>.cls-1{fill:#fff;}</style></defs><title>microsite</title><path class="cls-1" d="M8.23,71.88a.65.65,0,0,1-.54-.28.62.62,0,0,1-.1-.42L9.21,52.61a.56.56,0,0,1,.1-.28l.11-.2L34.09,13l.68-1,4.78-7.58A9.16,9.16,0,0,1,47.32.12a9.25,9.25,0,0,1,4.4,1.12l.52.34A9.23,9.23,0,0,1,55,14.17l-5.43,8.6L24.87,62a.57.57,0,0,1-.25.26l-16,9.46a.7.7,0,0,1-.39.13ZM9,70.09l4.67-2.83-.31-.46c-.08-.13-.17-.24-.26-.36a5,5,0,0,0-2.62-1.66l-1-.19Zm4.6-19a3.82,3.82,0,0,0-.75.08,3.62,3.62,0,0,0-2.29,1.56l-.07.11L9.58,63.33l.5.07a5.55,5.55,0,0,1,.71.13,6.25,6.25,0,0,1,3.73,2.66l.27.43,9.07-5.35.07-.12a3.58,3.58,0,0,0,.39-2.75,3.6,3.6,0,0,0-3.51-2.72,3.61,3.61,0,0,0-3,1.65.63.63,0,0,1-.56.35.55.55,0,0,1-.28-.07.69.69,0,0,1-.37-.39.56.56,0,0,1,0-.44A3.77,3.77,0,0,0,17.15,54,3.64,3.64,0,0,0,13.6,51.09Zm7.24,3.3a4.88,4.88,0,0,1,4.49,3l.4.94L48.22,22.63l-6.17-3.85L19.55,54.45l1-.05Zm-7.25-4.55a4.89,4.89,0,0,1,4.5,3l.4.94L41,18.09l-6.13-3.87L12.36,49.89l1,0Zm21.93-36.7,13.34,8.41,1.71-2.7,1.52-2.36L38.73,8ZM47.27,1.41A7.88,7.88,0,0,0,40.58,5.1L39.42,7l13.34,8.4,1.18-1.88A7.92,7.92,0,0,0,51.45,2.61,7.84,7.84,0,0,0,47.27,1.41Z"/></svg>