<svg id="Layer_1" data-name="Layer 1" xmlns="http://www.w3.org/2000/svg" viewBox="0 0 146 135"><defs><style>.cls-1{fill:#d1bd42;}</style></defs><title>microsite</title><path class="cls-1" d="M34.11,48.88a1.33,1.33,0,0,1-.94-.39,1.31,1.31,0,0,1-.39-1,1.28,1.28,0,0,1,.39-.95,1.34,1.34,0,0,1,1.89,0,1.36,1.36,0,0,1,.39.95,1.35,1.35,0,0,1-1.34,1.34Z"/><path class="cls-1" d="M7.16,134.67a1.34,1.34,0,0,1-1.34-1.34v-2.67A12,12,0,0,1,12.28,120l1.38-.72L12.74,118a8,8,0,0,1,6.46-12.78H64.7a8,8,0,0,1,8,8A7.91,7.91,0,0,1,71.17,118l-.92,1.26,1.38.72a12,12,0,0,1,6.45,10.67v2.67a1.34,1.34,0,0,1-1.34,1.34Zm10.71-13.38a9.38,9.38,0,0,0-9.37,9.37V132H75.4v-1.33A9.37,9.37,0,0,0,66,121.29Zm1.33-13.38a5.36,5.36,0,0,0-5.35,5.35,5.36,5.36,0,0,0,5.35,5.35H64.7a5.35,5.35,0,0,0,0-10.7Z"/><path class="cls-1" d="M125.35,134.67A14.59,14.59,0,0,1,115,130.36c-.28-.28-.55-.57-.8-.87L103,116.64l-.07-.06-.07-.07a1.45,1.45,0,0,1-.19-.23l0-.08-38.27-44-1,1A6.69,6.69,0,0,1,54,73.09a6.84,6.84,0,0,1-1.31-1.85l-.81-1.7-5.12,5.11.2.75a9.4,9.4,0,0,1-2.42,9,9.37,9.37,0,0,1-13.24,0L8.57,61.73a9.37,9.37,0,0,1,6.62-16,9.54,9.54,0,0,1,2.43.32l.74.2,33.4-33.4-.2-.75a9.42,9.42,0,0,1,2.42-9,9.38,9.38,0,0,1,13.25,0L89.94,25.78a9.36,9.36,0,0,1-6.62,16,9.11,9.11,0,0,1-2.43-.32l-.74-.19L75,46.37l1.72.81a6.68,6.68,0,0,1,2,10.65l-1,1L121.48,97l.16.08a1.37,1.37,0,0,1,.37.26,1.2,1.2,0,0,1,.17.21l.1.15,12.64,11a15.57,15.57,0,0,1,3,3.42,14.48,14.48,0,0,1,.48,14.78,14.87,14.87,0,0,1-11,7.6A14.5,14.5,0,0,1,125.35,134.67ZM105.64,115.6l10.58,12.16c.2.23.42.48.65.71a12,12,0,0,0,10.18,3.41,12.21,12.21,0,0,0,9-6.26,12,12,0,0,0-.4-12,12.73,12.73,0,0,0-2.47-2.83l-12.12-10.58Zm-7-8.09,5.28,6.07L119,98.43,113,93.14ZM66.22,70.31l30.62,35.18L111,91.37,75.81,60.72Zm-51-21.89a6.61,6.61,0,0,0-4.73,2,6.69,6.69,0,0,0,0,9.46L33.17,82.55a6.69,6.69,0,1,0,9.46-9.46L19.92,50.38A6.61,6.61,0,0,0,15.19,48.42Zm58.66.79a4,4,0,0,0-2.79,1.13L55.84,65.55a4,4,0,0,0,5.71,5.65L76.69,56.06a4,4,0,0,0,0-5.68A4,4,0,0,0,73.85,49.21Zm-53-1.67,24.6,24.6,8.45-8.45.06-.06L69.12,48.48l.08-.07L77.64,40,53,15.37ZM60.61,3a6.69,6.69,0,0,0-4.73,11.42L78.59,37.13a6.69,6.69,0,1,0,9.46-9.46L65.34,5A6.68,6.68,0,0,0,60.61,3Z"/><path class="cls-1" d="M41.68,41.31A1.34,1.34,0,0,1,40.74,39L52.09,27.67a1.34,1.34,0,0,1,1.89,0,1.32,1.32,0,0,1,0,1.89L42.63,40.92A1.34,1.34,0,0,1,41.68,41.31Z"/></svg>